<svg width="300" height="300" viewBox="0 0 300 300" fill="none" xmlns="http://www.w3.org/2000/svg">
<g clip-path="url(#clip0_50_226)">
<path d="M264.541 185.255V77.605L52.4745 39.3153V26.0812C52.4745 11.7002 40.775 5.72205e-06 26.3939 5.72205e-06H-0.541992V17.6722H26.3934C31.0299 17.6722 34.8024 21.4446 34.8024 26.0812V189.257C34.8024 208.095 50.1277 223.421 68.9656 223.421H76.0375V243.559C72.427 241.977 68.4437 241.093 64.256 241.093C48.0153 241.093 34.8024 254.306 34.8024 270.546C34.8024 286.787 48.0153 300 64.256 300C79.503 300 92.0797 288.355 93.5618 273.492H93.7096V223.421H246.869V243.559C243.258 241.977 239.275 241.093 235.087 241.093C218.846 241.093 205.633 254.306 205.633 270.546C205.633 286.787 218.846 300 235.087 300C250.334 300 262.911 288.355 264.393 273.492H264.541V205.748H68.9656C59.8721 205.748 52.4745 198.351 52.4745 189.257V182.309L264.541 185.255ZM64.256 282.328C57.7597 282.328 52.4745 277.043 52.4745 270.546C52.4745 264.05 57.7597 258.765 64.256 258.765C70.7523 258.765 76.0375 264.05 76.0375 270.546C76.0375 277.043 70.7523 282.328 64.256 282.328ZM235.087 282.328C228.591 282.328 223.306 277.043 223.306 270.546C223.306 264.05 228.591 258.765 235.087 258.765C241.583 258.765 246.869 264.05 246.869 270.546C246.869 277.043 241.583 282.328 235.087 282.328ZM140.835 165.862L105.491 165.372V66.8456L140.835 73.227V165.862ZM158.508 76.418L190.907 82.2681V166.558L158.508 166.108V76.418ZM87.8189 165.126L52.4745 164.635V57.2732L87.8189 63.6546V165.126ZM246.869 167.335L208.579 166.803V85.4585L246.869 92.3719V167.335Z" fill="#B6B6B6"/>
</g>
<defs>
<clipPath id="clip0_50_226">
<rect width="300" height="300" fill="white"/>
</clipPath>
</defs>
</svg>
